<svg width="18" height="22" viewBox="0 0 18 22" fill="none" xmlns="http://www.w3.org/2000/svg">
<path d="M9 10C10.3738 10 11.5632 9.50727 12.5353 8.53511C13.5071 7.56312 14 6.37382 14 4.99984C14 3.62634 13.5073 2.43688 12.5352 1.46457C11.563 0.49273 10.3736 0 9 0C7.62607 0 6.43681 0.49273 5.46484 1.46473C4.49287 2.43673 4 3.62618 4 4.99984C4 6.37382 4.49287 7.56327 5.46484 8.53527C6.43712 9.50711 7.62654 10 9 10ZM6.32515 2.32491C7.07095 1.57908 7.94583 1.21654 9 1.21654C10.054 1.21654 10.929 1.57908 11.675 2.32491C12.4208 3.07089 12.7835 3.94596 12.7835 4.99984C12.7835 6.05404 12.4208 6.92895 11.675 7.67493C10.929 8.42092 10.054 8.78346 9 8.78346C7.94615 8.78346 7.07127 8.42076 6.32515 7.67493C5.57919 6.92911 5.2165 6.05404 5.2165 4.99984C5.2165 3.94596 5.57919 3.07089 6.32515 2.32491Z" fill="#105FB1"/>
<path d="M17.9564 16.6368C17.9272 16.1844 17.8683 15.6911 17.7816 15.17C17.694 14.6451 17.5812 14.1489 17.4463 13.6953C17.3067 13.2266 17.1172 12.7636 16.8827 12.32C16.6396 11.8595 16.3538 11.4586 16.0332 11.1286C15.6979 10.7835 15.2873 10.506 14.8126 10.3035C14.3396 10.1022 13.8153 10.0002 13.2545 10.0002C13.0343 10.0002 12.8213 10.0974 12.4099 10.3855C12.1568 10.5632 11.8606 10.7686 11.5301 10.9958C11.2475 11.1896 10.8646 11.3711 10.3917 11.5354C9.93034 11.6961 9.46188 11.7775 8.99934 11.7775C8.53714 11.7775 8.06868 11.6961 7.60696 11.5354C7.13455 11.3713 6.75152 11.1897 6.46939 10.996C6.142 10.7709 5.84571 10.5655 5.58877 10.3854C5.17775 10.0972 4.96476 10 4.74452 10C4.18355 10 3.65945 10.1022 3.18655 10.3037C2.71216 10.5058 2.30148 10.7833 1.96585 11.1288C1.64521 11.4589 1.35946 11.8597 1.1165 12.32C0.882272 12.7636 0.69265 13.2264 0.553066 13.6955C0.418256 14.1491 0.305503 14.6451 0.217934 15.17C0.131024 15.6903 0.0722607 16.1839 0.043126 16.6373C0.0144851 17.0806 0 17.5419 0 18.008C0 19.2197 0.358012 20.2007 1.06399 20.9241C1.76125 21.638 2.68369 22 3.80579 22H14.1942C15.316 22 16.2384 21.638 16.9358 20.9241C17.642 20.2012 18 19.2199 18 18.0079C17.9998 17.5401 17.9852 17.0788 17.9564 16.6368ZM16.0641 19.9386C15.6034 20.4104 14.9917 20.6397 14.194 20.6397H3.80579C3.00796 20.6397 2.39629 20.4104 1.93573 19.9388C1.4839 19.476 1.26432 18.8443 1.26432 18.008C1.26432 17.5731 1.27765 17.1436 1.30431 16.7313C1.33032 16.3268 1.38349 15.8825 1.46233 15.4104C1.54019 14.9441 1.63928 14.5064 1.75714 14.1103C1.87022 13.7304 2.02445 13.3542 2.21572 12.9919C2.39827 12.6466 2.6083 12.3503 2.84006 12.1115C3.05684 11.8882 3.33008 11.7055 3.65205 11.5684C3.94981 11.4416 4.28445 11.3722 4.64773 11.3617C4.69201 11.387 4.77085 11.4354 4.89859 11.525C5.15849 11.7072 5.45807 11.9151 5.78925 12.1427C6.16257 12.3988 6.64354 12.6301 7.21817 12.8297C7.80564 13.034 8.4048 13.1378 8.99951 13.1378C9.59422 13.1378 10.1935 13.034 10.7807 12.8299C11.3558 12.6299 11.8366 12.3988 12.2104 12.1424C12.5493 11.9093 12.8405 11.7074 13.1004 11.525C13.2282 11.4356 13.307 11.387 13.3513 11.3617C13.7147 11.3722 14.0494 11.4416 14.3473 11.5684C14.6691 11.7055 14.9423 11.8884 15.1591 12.1115C15.3909 12.3501 15.6009 12.6464 15.7835 12.9921C15.9749 13.3542 16.1293 13.7306 16.2422 14.1101C16.3602 14.5068 16.4595 14.9442 16.5372 15.4102C16.6159 15.8832 16.6692 16.3277 16.6952 16.7315V16.7319C16.722 17.1425 16.7355 17.5718 16.7357 18.008C16.7355 18.8445 16.5159 19.476 16.0641 19.9386Z" fill="#105FB1"/>
</svg>
