<svg width="27" height="23" viewBox="0 0 27 23" fill="none" xmlns="http://www.w3.org/2000/svg">
<mask id="path-1-inside-1_530_50" fill="white">
<path d="M23.8299 22.1401H2.79681C1.247 22.1401 0.0292969 20.9224 0.0292969 19.3726V6.08856C0.0292969 4.53875 1.247 3.32104 2.79681 3.32104H23.8299C25.3797 3.32104 26.5974 4.53875 26.5974 6.08856V19.3726C26.5974 20.9224 25.3797 22.1401 23.8299 22.1401ZM2.79681 4.42805C1.9112 4.42805 1.1363 5.20295 1.1363 6.08856V19.3726C1.1363 20.2582 1.9112 21.0331 2.79681 21.0331H23.8299C24.7155 21.0331 25.4904 20.2582 25.4904 19.3726V6.08856C25.4904 5.20295 24.7155 4.42805 23.8299 4.42805H2.79681Z"/>
</mask>
<path d="M23.8299 22.1401H2.79681C1.247 22.1401 0.0292969 20.9224 0.0292969 19.3726V6.08856C0.0292969 4.53875 1.247 3.32104 2.79681 3.32104H23.8299C25.3797 3.32104 26.5974 4.53875 26.5974 6.08856V19.3726C26.5974 20.9224 25.3797 22.1401 23.8299 22.1401ZM2.79681 4.42805C1.9112 4.42805 1.1363 5.20295 1.1363 6.08856V19.3726C1.1363 20.2582 1.9112 21.0331 2.79681 21.0331H23.8299C24.7155 21.0331 25.4904 20.2582 25.4904 19.3726V6.08856C25.4904 5.20295 24.7155 4.42805 23.8299 4.42805H2.79681Z" fill="#383332"/>
<path d="M23.8299 19.1401H2.79681V25.1401H23.8299V19.1401ZM2.79681 19.1401C2.80543 19.1401 2.8309 19.1424 2.86441 19.1564C2.89634 19.1697 2.92697 19.19 2.9532 19.2162C2.97942 19.2424 2.9997 19.2731 3.01301 19.305C3.02697 19.3385 3.0293 19.364 3.0293 19.3726H-2.9707C-2.9707 22.5793 -0.409852 25.1401 2.79681 25.1401V19.1401ZM3.0293 19.3726V6.08856H-2.9707V19.3726H3.0293ZM3.0293 6.08856C3.0293 6.09718 3.02697 6.12264 3.01301 6.15615C2.9997 6.18809 2.97942 6.21872 2.9532 6.24494C2.92697 6.27117 2.89634 6.29145 2.86441 6.30476C2.8309 6.31872 2.80543 6.32104 2.79681 6.32104V0.321045C-0.409852 0.321045 -2.9707 2.88189 -2.9707 6.08856H3.0293ZM2.79681 6.32104H23.8299V0.321045H2.79681V6.32104ZM23.8299 6.32104C23.8213 6.32104 23.7958 6.31872 23.7623 6.30476C23.7304 6.29145 23.6997 6.27117 23.6735 6.24494C23.6473 6.21872 23.627 6.18809 23.6137 6.15615C23.5997 6.12264 23.5974 6.09718 23.5974 6.08856H29.5974C29.5974 2.88189 27.0365 0.321045 23.8299 0.321045V6.32104ZM23.5974 6.08856V19.3726H29.5974V6.08856H23.5974ZM23.5974 19.3726C23.5974 19.364 23.5997 19.3385 23.6137 19.305C23.627 19.2731 23.6473 19.2424 23.6735 19.2162C23.6997 19.19 23.7304 19.1697 23.7623 19.1564C23.7958 19.1424 23.8213 19.1401 23.8299 19.1401V25.1401C27.0365 25.1401 29.5974 22.5793 29.5974 19.3726H23.5974ZM2.79681 1.42805C0.25435 1.42805 -1.8637 3.5461 -1.8637 6.08856H4.1363C4.1363 6.5285 3.94923 6.85407 3.75577 7.04752C3.56232 7.24097 3.23675 7.42805 2.79681 7.42805V1.42805ZM-1.8637 6.08856V19.3726H4.1363V6.08856H-1.8637ZM-1.8637 19.3726C-1.8637 21.9151 0.25435 24.0331 2.79681 24.0331V18.0331C3.23675 18.0331 3.56232 18.2202 3.75577 18.4136C3.94923 18.6071 4.1363 18.9327 4.1363 19.3726H-1.8637ZM2.79681 24.0331H23.8299V18.0331H2.79681V24.0331ZM23.8299 24.0331C26.3723 24.0331 28.4904 21.9151 28.4904 19.3726H22.4904C22.4904 18.9327 22.6775 18.6071 22.8709 18.4136C23.0644 18.2202 23.3899 18.0331 23.8299 18.0331V24.0331ZM28.4904 19.3726V6.08856H22.4904V19.3726H28.4904ZM28.4904 6.08856C28.4904 3.5461 26.3723 1.42805 23.8299 1.42805V7.42805C23.3899 7.42805 23.0644 7.24097 22.8709 7.04752C22.6775 6.85407 22.4904 6.5285 22.4904 6.08856H28.4904ZM23.8299 1.42805H2.79681V7.42805H23.8299V1.42805Z" fill="#383332" mask="url(#path-1-inside-1_530_50)"/>
<mask id="path-3-inside-2_530_50" fill="white">
<path d="M17.1873 4.42802C16.8552 4.42802 16.6338 4.20662 16.6338 3.87451V1.66051C16.6338 1.32841 16.4124 1.107 16.0803 1.107H10.5453C10.2132 1.107 9.99177 1.32841 9.99177 1.66051V3.87451C9.99177 4.20662 9.77037 4.42802 9.43827 4.42802C9.10617 4.42802 8.88477 4.20662 8.88477 3.87451V1.66051C8.88477 0.774903 9.65967 0 10.5453 0H16.0803C16.9659 0 17.7408 0.774903 17.7408 1.66051V3.87451C17.7408 4.20662 17.5194 4.42802 17.1873 4.42802Z"/>
</mask>
<path d="M17.1873 4.42802C16.8552 4.42802 16.6338 4.20662 16.6338 3.87451V1.66051C16.6338 1.32841 16.4124 1.107 16.0803 1.107H10.5453C10.2132 1.107 9.99177 1.32841 9.99177 1.66051V3.87451C9.99177 4.20662 9.77037 4.42802 9.43827 4.42802C9.10617 4.42802 8.88477 4.20662 8.88477 3.87451V1.66051C8.88477 0.774903 9.65967 0 10.5453 0H16.0803C16.9659 0 17.7408 0.774903 17.7408 1.66051V3.87451C17.7408 4.20662 17.5194 4.42802 17.1873 4.42802Z" fill="#383332"/>
<path d="M17.1873 1.42802C17.703 1.42802 18.3659 1.61301 18.9073 2.15448C19.4488 2.69596 19.6338 3.35882 19.6338 3.87451H13.6338C13.6338 4.72231 13.9295 5.66192 14.6647 6.39712C15.3999 7.13232 16.3395 7.42802 17.1873 7.42802V1.42802ZM19.6338 3.87451V1.66051H13.6338V3.87451H19.6338ZM19.6338 1.66051C19.6338 0.812712 19.3381 -0.126902 18.6029 -0.862103C17.8677 -1.5973 16.9281 -1.893 16.0803 -1.893V4.107C15.5646 4.107 14.9017 3.92201 14.3603 3.38054C13.8188 2.83906 13.6338 2.1762 13.6338 1.66051H19.6338ZM16.0803 -1.893H10.5453V4.107H16.0803V-1.893ZM10.5453 -1.893C9.69748 -1.893 8.75786 -1.5973 8.02266 -0.862103C7.28746 -0.126902 6.99177 0.812712 6.99177 1.66051H12.9918C12.9918 2.1762 12.8068 2.83906 12.2653 3.38054C11.7238 3.92201 11.061 4.107 10.5453 4.107V-1.893ZM6.99177 1.66051V3.87451H12.9918V1.66051H6.99177ZM6.99177 3.87451C6.99177 3.35882 7.17676 2.69596 7.71824 2.15448C8.25971 1.61301 8.92258 1.42802 9.43827 1.42802V7.42802C10.2861 7.42802 11.2257 7.13232 11.9609 6.39712C12.6961 5.66192 12.9918 4.72231 12.9918 3.87451H6.99177ZM9.43827 1.42802C9.95396 1.42802 10.6168 1.61301 11.1583 2.15448C11.6998 2.69596 11.8848 3.35882 11.8848 3.87451H5.88477C5.88477 4.72231 6.18046 5.66192 6.91566 6.39712C7.65086 7.13232 8.59047 7.42802 9.43827 7.42802V1.42802ZM11.8848 3.87451V1.66051H5.88477V3.87451H11.8848ZM11.8848 1.66051C11.8848 2.10045 11.6977 2.42602 11.5042 2.61947C11.3108 2.81292 10.9852 3 10.5453 3V-3C8.00281 -3 5.88477 -0.881951 5.88477 1.66051H11.8848ZM10.5453 3H16.0803V-3H10.5453V3ZM16.0803 3C15.6404 3 15.3148 2.81292 15.1213 2.61947C14.9279 2.42602 14.7408 2.10045 14.7408 1.66051H20.7408C20.7408 -0.881951 18.6228 -3 16.0803 -3V3ZM14.7408 1.66051V3.87451H20.7408V1.66051H14.7408ZM14.7408 3.87451C14.7408 3.35882 14.9258 2.69596 15.4673 2.15448C16.0087 1.61301 16.6716 1.42802 17.1873 1.42802V7.42802C18.0351 7.42802 18.9747 7.13232 19.7099 6.39712C20.4451 5.66192 20.7408 4.72231 20.7408 3.87451H14.7408Z" fill="#383332" mask="url(#path-3-inside-2_530_50)"/>
<mask id="path-5-inside-3_530_50" fill="white">
<path d="M13.3135 13.2841C13.2028 13.2841 13.2028 13.2841 13.0921 13.2841L0.361546 8.85604C0.140145 8.74534 -0.0812556 8.41323 0.0294448 8.08113C0.140145 7.85973 0.472246 7.63833 0.804348 7.74903L13.3135 12.177L25.8226 7.74903C26.1547 7.63833 26.3761 7.74903 26.4868 8.08113C26.5975 8.41323 26.4868 8.63464 26.1547 8.74534L13.4242 13.1734C13.4242 13.2841 13.4242 13.2841 13.3135 13.2841Z"/>
</mask>
<path d="M13.3135 13.2841C13.2028 13.2841 13.2028 13.2841 13.0921 13.2841L0.361546 8.85604C0.140145 8.74534 -0.0812556 8.41323 0.0294448 8.08113C0.140145 7.85973 0.472246 7.63833 0.804348 7.74903L13.3135 12.177L25.8226 7.74903C26.1547 7.63833 26.3761 7.74903 26.4868 8.08113C26.5975 8.41323 26.4868 8.63464 26.1547 8.74534L13.4242 13.1734C13.4242 13.2841 13.4242 13.2841 13.3135 13.2841Z" fill="#383332"/>
<path d="M13.0921 13.2841L12.1065 16.1175L12.5852 16.2841H13.0921V13.2841ZM0.361546 8.85604L-0.980095 11.5393L-0.806903 11.6259L-0.624016 11.6895L0.361546 8.85604ZM0.0294448 8.08113L-2.65384 6.73949L-2.74918 6.93019L-2.81661 7.13245L0.0294448 8.08113ZM0.804348 7.74903L1.80543 4.92099L1.77931 4.91174L1.75303 4.90298L0.804348 7.74903ZM13.3135 12.177L12.3124 15.0051L13.3135 15.3595L14.3146 15.0051L13.3135 12.177ZM25.8226 7.74903L24.874 4.90298L24.8477 4.91174L24.8216 4.92099L25.8226 7.74903ZM26.1547 8.74534L25.2061 5.89929L25.1876 5.90545L25.1692 5.91185L26.1547 8.74534ZM13.4242 13.1734L12.4386 10.3399L10.4242 11.0405V13.1734H13.4242ZM13.3135 10.2841C13.3133 10.2841 13.3131 10.2841 13.3128 10.2841C13.3126 10.2841 13.3124 10.2841 13.3122 10.2841C13.312 10.2841 13.3118 10.2841 13.3116 10.2841C13.3113 10.2841 13.3111 10.2841 13.3109 10.2841C13.3107 10.2841 13.3105 10.2841 13.3103 10.2841C13.3101 10.2841 13.3099 10.2841 13.3096 10.2841C13.3094 10.2841 13.3092 10.2841 13.309 10.2841C13.3088 10.2841 13.3086 10.2841 13.3084 10.2841C13.3082 10.2841 13.308 10.2841 13.3078 10.2841C13.3076 10.2841 13.3073 10.2841 13.3071 10.2841C13.3069 10.2841 13.3067 10.2841 13.3065 10.2841C13.3063 10.2841 13.3061 10.2841 13.3059 10.2841C13.3057 10.2841 13.3055 10.2841 13.3053 10.2841C13.3051 10.2841 13.3049 10.2841 13.3047 10.2841C13.3045 10.2841 13.3042 10.2841 13.304 10.2841C13.3038 10.2841 13.3036 10.2841 13.3034 10.2841C13.3032 10.2841 13.303 10.2841 13.3028 10.2841C13.3026 10.2841 13.3024 10.2841 13.3022 10.2841C13.302 10.2841 13.3018 10.2841 13.3016 10.2841C13.3014 10.2841 13.3012 10.2841 13.301 10.2841C13.3008 10.2841 13.3006 10.2841 13.3004 10.2841C13.3002 10.2841 13.3 10.2841 13.2998 10.2841C13.2996 10.2841 13.2994 10.2841 13.2992 10.2841C13.299 10.2841 13.2988 10.2841 13.2986 10.2841C13.2984 10.2841 13.2982 10.2841 13.298 10.2841C13.2978 10.2841 13.2977 10.2841 13.2975 10.2841C13.2973 10.2841 13.2971 10.2841 13.2969 10.2841C13.2967 10.2841 13.2965 10.2841 13.2963 10.2841C13.2961 10.2841 13.2959 10.2841 13.2957 10.2841C13.2955 10.2841 13.2953 10.2841 13.2951 10.2841C13.2949 10.2841 13.2947 10.2841 13.2946 10.2841C13.2944 10.2841 13.2942 10.2841 13.294 10.2841C13.2938 10.2841 13.2936 10.2841 13.2934 10.2841C13.2932 10.2841 13.293 10.2841 13.2928 10.2841C13.2927 10.2841 13.2925 10.2841 13.2923 10.2841C13.2921 10.2841 13.2919 10.2841 13.2917 10.2841C13.2915 10.2841 13.2913 10.2841 13.2911 10.2841C13.291 10.2841 13.2908 10.2841 13.2906 10.2841C13.2904 10.2841 13.2902 10.2841 13.29 10.2841C13.2898 10.2841 13.2897 10.2841 13.2895 10.2841C13.2893 10.2841 13.2891 10.2841 13.2889 10.2841C13.2887 10.2841 13.2885 10.2841 13.2884 10.2841C13.2882 10.2841 13.288 10.2841 13.2878 10.2841C13.2876 10.2841 13.2874 10.2841 13.2873 10.2841C13.2871 10.2841 13.2869 10.2841 13.2867 10.2841C13.2865 10.2841 13.2864 10.2841 13.2862 10.2841C13.286 10.2841 13.2858 10.2841 13.2856 10.2841C13.2855 10.2841 13.2853 10.2841 13.2851 10.2841C13.2849 10.2841 13.2847 10.2841 13.2846 10.2841C13.2844 10.2841 13.2842 10.2841 13.284 10.2841C13.2838 10.2841 13.2837 10.2841 13.2835 10.2841C13.2833 10.2841 13.2831 10.2841 13.283 10.2841C13.2828 10.2841 13.2826 10.2841 13.2824 10.2841C13.2823 10.2841 13.2821 10.2841 13.2819 10.2841C13.2817 10.2841 13.2816 10.2841 13.2814 10.2841C13.2812 10.2841 13.281 10.2841 13.2809 10.2841C13.2807 10.2841 13.2805 10.2841 13.2803 10.2841C13.2802 10.2841 13.28 10.2841 13.2798 10.2841C13.2796 10.2841 13.2795 10.2841 13.2793 10.2841C13.2791 10.2841 13.279 10.2841 13.2788 10.2841C13.2786 10.2841 13.2784 10.2841 13.2783 10.2841C13.2781 10.2841 13.2779 10.2841 13.2778 10.2841C13.2776 10.2841 13.2774 10.2841 13.2772 10.2841C13.2771 10.2841 13.2769 10.2841 13.2767 10.2841C13.2766 10.2841 13.2764 10.2841 13.2762 10.2841C13.2761 10.2841 13.2759 10.2841 13.2757 10.2841C13.2756 10.2841 13.2754 10.2841 13.2752 10.2841C13.2751 10.2841 13.2749 10.2841 13.2747 10.2841C13.2746 10.2841 13.2744 10.2841 13.2742 10.2841C13.2741 10.2841 13.2739 10.2841 13.2737 10.2841C13.2736 10.2841 13.2734 10.2841 13.2732 10.2841C13.2731 10.2841 13.2729 10.2841 13.2727 10.2841C13.2726 10.2841 13.2724 10.2841 13.2723 10.2841C13.2721 10.2841 13.2719 10.2841 13.2718 10.2841C13.2716 10.2841 13.2714 10.2841 13.2713 10.2841C13.2711 10.2841 13.271 10.2841 13.2708 10.2841C13.2706 10.2841 13.2705 10.2841 13.2703 10.2841C13.2701 10.2841 13.27 10.2841 13.2698 10.2841C13.2697 10.2841 13.2695 10.2841 13.2693 10.2841C13.2692 10.2841 13.269 10.2841 13.2689 10.2841C13.2687 10.2841 13.2685 10.2841 13.2684 10.2841C13.2682 10.2841 13.2681 10.2841 13.2679 10.2841C13.2678 10.2841 13.2676 10.2841 13.2674 10.2841C13.2673 10.2841 13.2671 10.2841 13.267 10.2841C13.2668 10.2841 13.2667 10.2841 13.2665 10.2841C13.2663 10.2841 13.2662 10.2841 13.266 10.2841C13.2659 10.2841 13.2657 10.2841 13.2656 10.2841C13.2654 10.2841 13.2653 10.2841 13.2651 10.2841C13.2649 10.2841 13.2648 10.2841 13.2646 10.2841C13.2645 10.2841 13.2643 10.2841 13.2642 10.2841C13.264 10.2841 13.2639 10.2841 13.2637 10.2841C13.2636 10.2841 13.2634 10.2841 13.2633 10.2841C13.2631 10.2841 13.263 10.2841 13.2628 10.2841C13.2627 10.2841 13.2625 10.2841 13.2623 10.2841C13.2622 10.2841 13.262 10.2841 13.2619 10.2841C13.2617 10.2841 13.2616 10.2841 13.2614 10.2841C13.2613 10.2841 13.2611 10.2841 13.261 10.2841C13.2608 10.2841 13.2607 10.2841 13.2605 10.2841C13.2604 10.2841 13.2602 10.2841 13.2601 10.2841C13.2599 10.2841 13.2598 10.2841 13.2597 10.2841C13.2595 10.2841 13.2594 10.2841 13.2592 10.2841C13.2591 10.2841 13.2589 10.2841 13.2588 10.2841C13.2586 10.2841 13.2585 10.2841 13.2583 10.2841C13.2582 10.2841 13.258 10.2841 13.2579 10.2841C13.2577 10.2841 13.2576 10.2841 13.2574 10.2841C13.2573 10.2841 13.2572 10.2841 13.257 10.2841C13.2569 10.2841 13.2567 10.2841 13.2566 10.2841C13.2564 10.2841 13.2563 10.2841 13.2561 10.2841C13.256 10.2841 13.2559 10.2841 13.2557 10.2841C13.2556 10.2841 13.2554 10.2841 13.2553 10.2841C13.2551 10.2841 13.255 10.2841 13.2548 10.2841C13.2547 10.2841 13.2546 10.2841 13.2544 10.2841C13.2543 10.2841 13.2541 10.2841 13.254 10.2841C13.2539 10.2841 13.2537 10.2841 13.2536 10.2841C13.2534 10.2841 13.2533 10.2841 13.2531 10.2841C13.253 10.2841 13.2529 10.2841 13.2527 10.2841C13.2526 10.2841 13.2524 10.2841 13.2523 10.2841C13.2522 10.2841 13.252 10.2841 13.2519 10.2841C13.2517 10.2841 13.2516 10.2841 13.2515 10.2841C13.2513 10.2841 13.2512 10.2841 13.2511 10.2841C13.2509 10.2841 13.2508 10.2841 13.2506 10.2841C13.2505 10.2841 13.2504 10.2841 13.2502 10.2841C13.2501 10.2841 13.2499 10.2841 13.2498 10.2841C13.2497 10.2841 13.2495 10.2841 13.2494 10.2841C13.2493 10.2841 13.2491 10.2841 13.249 10.2841C13.2489 10.2841 13.2487 10.2841 13.2486 10.2841C13.2484 10.2841 13.2483 10.2841 13.2482 10.2841C13.248 10.2841 13.2479 10.2841 13.2478 10.2841C13.2476 10.2841 13.2475 10.2841 13.2474 10.2841C13.2472 10.2841 13.2471 10.2841 13.247 10.2841C13.2468 10.2841 13.2467 10.2841 13.2466 10.2841C13.2464 10.2841 13.2463 10.2841 13.2462 10.2841C13.246 10.2841 13.2459 10.2841 13.2458 10.2841C13.2456 10.2841 13.2455 10.2841 13.2454 10.2841C13.2452 10.2841 13.2451 10.2841 13.245 10.2841C13.2448 10.2841 13.2447 10.2841 13.2446 10.2841C13.2444 10.2841 13.2443 10.2841 13.2442 10.2841C13.244 10.2841 13.2439 10.2841 13.2438 10.2841C13.2436 10.2841 13.2435 10.2841 13.2434 10.2841C13.2433 10.2841 13.2431 10.2841 13.243 10.2841C13.2429 10.2841 13.2427 10.2841 13.2426 10.2841C13.2425 10.2841 13.2423 10.2841 13.2422 10.2841C13.2421 10.2841 13.242 10.2841 13.2418 10.2841C13.2417 10.2841 13.2416 10.2841 13.2414 10.2841C13.2413 10.2841 13.2412 10.2841 13.241 10.2841C13.2409 10.2841 13.2408 10.2841 13.2407 10.2841C13.2405 10.2841 13.2404 10.2841 13.2403 10.2841C13.2402 10.2841 13.24 10.2841 13.2399 10.2841C13.2398 10.2841 13.2396 10.2841 13.2395 10.2841C13.2394 10.2841 13.2393 10.2841 13.2391 10.2841C13.239 10.2841 13.2389 10.2841 13.2388 10.2841C13.2386 10.2841 13.2385 10.2841 13.2384 10.2841C13.2383 10.2841 13.2381 10.2841 13.238 10.2841C13.2379 10.2841 13.2378 10.2841 13.2376 10.2841C13.2375 10.2841 13.2374 10.2841 13.2373 10.2841C13.2371 10.2841 13.237 10.2841 13.2369 10.2841C13.2368 10.2841 13.2366 10.2841 13.2365 10.2841C13.2364 10.2841 13.2363 10.2841 13.2361 10.2841C13.236 10.2841 13.2359 10.2841 13.2358 10.2841C13.2356 10.2841 13.2355 10.2841 13.2354 10.2841C13.2353 10.2841 13.2351 10.2841 13.235 10.2841C13.2349 10.2841 13.2348 10.2841 13.2347 10.2841C13.2345 10.2841 13.2344 10.2841 13.2343 10.2841C13.2342 10.2841 13.234 10.2841 13.2339 10.2841C13.2338 10.2841 13.2337 10.2841 13.2336 10.2841C13.2334 10.2841 13.2333 10.2841 13.2332 10.2841C13.2331 10.2841 13.2329 10.2841 13.2328 10.2841C13.2327 10.2841 13.2326 10.2841 13.2325 10.2841C13.2323 10.2841 13.2322 10.2841 13.2321 10.2841C13.232 10.2841 13.2319 10.2841 13.2317 10.2841C13.2316 10.2841 13.2315 10.2841 13.2314 10.2841C13.2313 10.2841 13.2311 10.2841 13.231 10.2841C13.2309 10.2841 13.2308 10.2841 13.2307 10.2841C13.2305 10.2841 13.2304 10.2841 13.2303 10.2841C13.2302 10.2841 13.2301 10.2841 13.2299 10.2841C13.2298 10.2841 13.2297 10.2841 13.2296 10.2841C13.2295 10.2841 13.2293 10.2841 13.2292 10.2841C13.2291 10.2841 13.229 10.2841 13.2289 10.2841C13.2288 10.2841 13.2286 10.2841 13.2285 10.2841C13.2284 10.2841 13.2283 10.2841 13.2282 10.2841C13.228 10.2841 13.2279 10.2841 13.2278 10.2841C13.2277 10.2841 13.2276 10.2841 13.2275 10.2841C13.2273 10.2841 13.2272 10.2841 13.2271 10.2841C13.227 10.2841 13.2269 10.2841 13.2268 10.2841C13.2266 10.2841 13.2265 10.2841 13.2264 10.2841C13.2263 10.2841 13.2262 10.2841 13.2261 10.2841C13.2259 10.2841 13.2258 10.2841 13.2257 10.2841C13.2256 10.2841 13.2255 10.2841 13.2254 10.2841C13.2253 10.2841 13.2251 10.2841 13.225 10.2841C13.2249 10.2841 13.2248 10.2841 13.2247 10.2841C13.2246 10.2841 13.2244 10.2841 13.2243 10.2841C13.2242 10.2841 13.2241 10.2841 13.224 10.2841C13.2239 10.2841 13.2238 10.2841 13.2236 10.2841C13.2235 10.2841 13.2234 10.2841 13.2233 10.2841C13.2232 10.2841 13.2231 10.2841 13.223 10.2841C13.2228 10.2841 13.2227 10.2841 13.2226 10.2841C13.2225 10.2841 13.2224 10.2841 13.2223 10.2841C13.2222 10.2841 13.222 10.2841 13.2219 10.2841C13.2218 10.2841 13.2217 10.2841 13.2216 10.2841C13.2215 10.2841 13.2214 10.2841 13.2212 10.2841C13.2211 10.2841 13.221 10.2841 13.2209 10.2841C13.2208 10.2841 13.2207 10.2841 13.2206 10.2841C13.2205 10.2841 13.2203 10.2841 13.2202 10.2841C13.2201 10.2841 13.22 10.2841 13.2199 10.2841C13.2198 10.2841 13.2197 10.2841 13.2196 10.2841C13.2194 10.2841 13.2193 10.2841 13.2192 10.2841C13.2191 10.2841 13.219 10.2841 13.2189 10.2841C13.2188 10.2841 13.2187 10.2841 13.2185 10.2841C13.2184 10.2841 13.2183 10.2841 13.2182 10.2841C13.2181 10.2841 13.218 10.2841 13.2179 10.2841C13.2178 10.2841 13.2177 10.2841 13.2175 10.2841C13.2174 10.2841 13.2173 10.2841 13.2172 10.2841C13.2171 10.2841 13.217 10.2841 13.2169 10.2841C13.2168 10.2841 13.2166 10.2841 13.2165 10.2841C13.2164 10.2841 13.2163 10.2841 13.2162 10.2841C13.2161 10.2841 13.216 10.2841 13.2159 10.2841C13.2158 10.2841 13.2157 10.2841 13.2155 10.2841C13.2154 10.2841 13.2153 10.2841 13.2152 10.2841C13.2151 10.2841 13.215 10.2841 13.2149 10.2841C13.2148 10.2841 13.2147 10.2841 13.2145 10.2841C13.2144 10.2841 13.2143 10.2841 13.2142 10.2841C13.2141 10.2841 13.214 10.2841 13.2139 10.2841C13.2138 10.2841 13.2137 10.2841 13.2136 10.2841C13.2134 10.2841 13.2133 10.2841 13.2132 10.2841C13.2131 10.2841 13.213 10.2841 13.2129 10.2841C13.2128 10.2841 13.2127 10.2841 13.2126 10.2841C13.2125 10.2841 13.2123 10.2841 13.2122 10.2841C13.2121 10.2841 13.212 10.2841 13.2119 10.2841C13.2118 10.2841 13.2117 10.2841 13.2116 10.2841C13.2115 10.2841 13.2114 10.2841 13.2113 10.2841C13.2111 10.2841 13.211 10.2841 13.2109 10.2841C13.2108 10.2841 13.2107 10.2841 13.2106 10.2841C13.2105 10.2841 13.2104 10.2841 13.2103 10.2841C13.2102 10.2841 13.2101 10.2841 13.2099 10.2841C13.2098 10.2841 13.2097 10.2841 13.2096 10.2841C13.2095 10.2841 13.2094 10.2841 13.2093 10.2841C13.2092 10.2841 13.2091 10.2841 13.209 10.2841C13.2089 10.2841 13.2088 10.2841 13.2086 10.2841C13.2085 10.2841 13.2084 10.2841 13.2083 10.2841C13.2082 10.2841 13.2081 10.2841 13.208 10.2841C13.2079 10.2841 13.2078 10.2841 13.2077 10.2841C13.2076 10.2841 13.2074 10.2841 13.2073 10.2841C13.2072 10.2841 13.2071 10.2841 13.207 10.2841C13.2069 10.2841 13.2068 10.2841 13.2067 10.2841C13.2066 10.2841 13.2065 10.2841 13.2064 10.2841C13.2063 10.2841 13.2061 10.2841 13.206 10.2841C13.2059 10.2841 13.2058 10.2841 13.2057 10.2841C13.2056 10.2841 13.2055 10.2841 13.2054 10.2841C13.2053 10.2841 13.2052 10.2841 13.2051 10.2841C13.205 10.2841 13.2048 10.2841 13.2047 10.2841C13.2046 10.2841 13.2045 10.2841 13.2044 10.2841C13.2043 10.2841 13.2042 10.2841 13.2041 10.2841C13.204 10.2841 13.2039 10.2841 13.2038 10.2841C13.2037 10.2841 13.2036 10.2841 13.2034 10.2841C13.2033 10.2841 13.2032 10.2841 13.2031 10.2841C13.203 10.2841 13.2029 10.2841 13.2028 10.2841C13.2027 10.2841 13.2026 10.2841 13.2025 10.2841C13.2024 10.2841 13.2023 10.2841 13.2021 10.2841C13.202 10.2841 13.2019 10.2841 13.2018 10.2841C13.2017 10.2841 13.2016 10.2841 13.2015 10.2841C13.2014 10.2841 13.2013 10.2841 13.2012 10.2841C13.2011 10.2841 13.201 10.2841 13.2008 10.2841C13.2007 10.2841 13.2006 10.2841 13.2005 10.2841C13.2004 10.2841 13.2003 10.2841 13.2002 10.2841C13.2001 10.2841 13.2 10.2841 13.1999 10.2841C13.1998 10.2841 13.1997 10.2841 13.1995 10.2841C13.1994 10.2841 13.1993 10.2841 13.1992 10.2841C13.1991 10.2841 13.199 10.2841 13.1989 10.2841C13.1988 10.2841 13.1987 10.2841 13.1986 10.2841C13.1985 10.2841 13.1984 10.2841 13.1982 10.2841C13.1981 10.2841 13.198 10.2841 13.1979 10.2841C13.1978 10.2841 13.1977 10.2841 13.1976 10.2841C13.1975 10.2841 13.1974 10.2841 13.1973 10.2841C13.1972 10.2841 13.1971 10.2841 13.1969 10.2841C13.1968 10.2841 13.1967 10.2841 13.1966 10.2841C13.1965 10.2841 13.1964 10.2841 13.1963 10.2841C13.1962 10.2841 13.1961 10.2841 13.196 10.2841C13.1959 10.2841 13.1958 10.2841 13.1956 10.2841C13.1955 10.2841 13.1954 10.2841 13.1953 10.2841C13.1952 10.2841 13.1951 10.2841 13.195 10.2841C13.1949 10.2841 13.1948 10.2841 13.1947 10.2841C13.1946 10.2841 13.1944 10.2841 13.1943 10.2841C13.1942 10.2841 13.1941 10.2841 13.194 10.2841C13.1939 10.2841 13.1938 10.2841 13.1937 10.2841C13.1936 10.2841 13.1935 10.2841 13.1933 10.2841C13.1932 10.2841 13.1931 10.2841 13.193 10.2841C13.1929 10.2841 13.1928 10.2841 13.1927 10.2841C13.1926 10.2841 13.1925 10.2841 13.1924 10.2841C13.1923 10.2841 13.1921 10.2841 13.192 10.2841C13.1919 10.2841 13.1918 10.2841 13.1917 10.2841C13.1916 10.2841 13.1915 10.2841 13.1914 10.2841C13.1913 10.2841 13.1912 10.2841 13.191 10.2841C13.1909 10.2841 13.1908 10.2841 13.1907 10.2841C13.1906 10.2841 13.1905 10.2841 13.1904 10.2841C13.1903 10.2841 13.1902 10.2841 13.19 10.2841C13.1899 10.2841 13.1898 10.2841 13.1897 10.2841C13.1896 10.2841 13.1895 10.2841 13.1894 10.2841C13.1893 10.2841 13.1892 10.2841 13.1891 10.2841C13.1889 10.2841 13.1888 10.2841 13.1887 10.2841C13.1886 10.2841 13.1885 10.2841 13.1884 10.2841C13.1883 10.2841 13.1882 10.2841 13.1881 10.2841C13.1879 10.2841 13.1878 10.2841 13.1877 10.2841C13.1876 10.2841 13.1875 10.2841 13.1874 10.2841C13.1873 10.2841 13.1872 10.2841 13.187 10.2841C13.1869 10.2841 13.1868 10.2841 13.1867 10.2841C13.1866 10.2841 13.1865 10.2841 13.1864 10.2841C13.1863 10.2841 13.1861 10.2841 13.186 10.2841C13.1859 10.2841 13.1858 10.2841 13.1857 10.2841C13.1856 10.2841 13.1855 10.2841 13.1854 10.2841C13.1852 10.2841 13.1851 10.2841 13.185 10.2841C13.1849 10.2841 13.1848 10.2841 13.1847 10.2841C13.1846 10.2841 13.1845 10.2841 13.1843 10.2841C13.1842 10.2841 13.1841 10.2841 13.184 10.2841C13.1839 10.2841 13.1838 10.2841 13.1837 10.2841C13.1835 10.2841 13.1834 10.2841 13.1833 10.2841C13.1832 10.2841 13.1831 10.2841 13.183 10.2841C13.1829 10.2841 13.1828 10.2841 13.1826 10.2841C13.1825 10.2841 13.1824 10.2841 13.1823 10.2841C13.1822 10.2841 13.1821 10.2841 13.182 10.2841C13.1818 10.2841 13.1817 10.2841 13.1816 10.2841C13.1815 10.2841 13.1814 10.2841 13.1813 10.2841C13.1811 10.2841 13.181 10.2841 13.1809 10.2841C13.1808 10.2841 13.1807 10.2841 13.1806 10.2841C13.1805 10.2841 13.1803 10.2841 13.1802 10.2841C13.1801 10.2841 13.18 10.2841 13.1799 10.2841C13.1798 10.2841 13.1796 10.2841 13.1795 10.2841C13.1794 10.2841 13.1793 10.2841 13.1792 10.2841C13.1791 10.2841 13.1789 10.2841 13.1788 10.2841C13.1787 10.2841 13.1786 10.2841 13.1785 10.2841C13.1784 10.2841 13.1782 10.2841 13.1781 10.2841C13.178 10.2841 13.1779 10.2841 13.1778 10.2841C13.1777 10.2841 13.1775 10.2841 13.1774 10.2841C13.1773 10.2841 13.1772 10.2841 13.1771 10.2841C13.177 10.2841 13.1768 10.2841 13.1767 10.2841C13.1766 10.2841 13.1765 10.2841 13.1764 10.2841C13.1762 10.2841 13.1761 10.2841 13.176 10.2841C13.1759 10.2841 13.1758 10.2841 13.1756 10.2841C13.1755 10.2841 13.1754 10.2841 13.1753 10.2841C13.1752 10.2841 13.1751 10.2841 13.1749 10.2841C13.1748 10.2841 13.1747 10.2841 13.1746 10.2841C13.1745 10.2841 13.1743 10.2841 13.1742 10.2841C13.1741 10.2841 13.174 10.2841 13.1739 10.2841C13.1737 10.2841 13.1736 10.2841 13.1735 10.2841C13.1734 10.2841 13.1733 10.2841 13.1731 10.2841C13.173 10.2841 13.1729 10.2841 13.1728 10.2841C13.1726 10.2841 13.1725 10.2841 13.1724 10.2841C13.1723 10.2841 13.1722 10.2841 13.172 10.2841C13.1719 10.2841 13.1718 10.2841 13.1717 10.2841C13.1716 10.2841 13.1714 10.2841 13.1713 10.2841C13.1712 10.2841 13.1711 10.2841 13.1709 10.2841C13.1708 10.2841 13.1707 10.2841 13.1706 10.2841C13.1704 10.2841 13.1703 10.2841 13.1702 10.2841C13.1701 10.2841 13.17 10.2841 13.1698 10.2841C13.1697 10.2841 13.1696 10.2841 13.1695 10.2841C13.1693 10.2841 13.1692 10.2841 13.1691 10.2841C13.169 10.2841 13.1688 10.2841 13.1687 10.2841C13.1686 10.2841 13.1685 10.2841 13.1683 10.2841C13.1682 10.2841 13.1681 10.2841 13.168 10.2841C13.1678 10.2841 13.1677 10.2841 13.1676 10.2841C13.1675 10.2841 13.1673 10.2841 13.1672 10.2841C13.1671 10.2841 13.167 10.2841 13.1668 10.2841C13.1667 10.2841 13.1666 10.2841 13.1665 10.2841C13.1663 10.2841 13.1662 10.2841 13.1661 10.2841C13.1659 10.2841 13.1658 10.2841 13.1657 10.2841C13.1656 10.2841 13.1654 10.2841 13.1653 10.2841C13.1652 10.2841 13.1651 10.2841 13.1649 10.2841C13.1648 10.2841 13.1647 10.2841 13.1645 10.2841C13.1644 10.2841 13.1643 10.2841 13.1642 10.2841C13.164 10.2841 13.1639 10.2841 13.1638 10.2841C13.1636 10.2841 13.1635 10.2841 13.1634 10.2841C13.1632 10.2841 13.1631 10.2841 13.163 10.2841C13.1629 10.2841 13.1627 10.2841 13.1626 10.2841C13.1625 10.2841 13.1623 10.2841 13.1622 10.2841C13.1621 10.2841 13.1619 10.2841 13.1618 10.2841C13.1617 10.2841 13.1616 10.2841 13.1614 10.2841C13.1613 10.2841 13.1612 10.2841 13.161 10.2841C13.1609 10.2841 13.1608 10.2841 13.1606 10.2841C13.1605 10.2841 13.1604 10.2841 13.1602 10.2841C13.1601 10.2841 13.16 10.2841 13.1598 10.2841C13.1597 10.2841 13.1596 10.2841 13.1594 10.2841C13.1593 10.2841 13.1592 10.2841 13.159 10.2841C13.1589 10.2841 13.1588 10.2841 13.1586 10.2841C13.1585 10.2841 13.1584 10.2841 13.1582 10.2841C13.1581 10.2841 13.158 10.2841 13.1578 10.2841C13.1577 10.2841 13.1576 10.2841 13.1574 10.2841C13.1573 10.2841 13.1571 10.2841 13.157 10.2841C13.1569 10.2841 13.1567 10.2841 13.1566 10.2841C13.1565 10.2841 13.1563 10.2841 13.1562 10.2841C13.1561 10.2841 13.1559 10.2841 13.1558 10.2841C13.1556 10.2841 13.1555 10.2841 13.1554 10.2841C13.1552 10.2841 13.1551 10.2841 13.155 10.2841C13.1548 10.2841 13.1547 10.2841 13.1545 10.2841C13.1544 10.2841 13.1543 10.2841 13.1541 10.2841C13.154 10.2841 13.1538 10.2841 13.1537 10.2841C13.1536 10.2841 13.1534 10.2841 13.1533 10.2841C13.1531 10.2841 13.153 10.2841 13.1529 10.2841C13.1527 10.2841 13.1526 10.2841 13.1524 10.2841C13.1523 10.2841 13.1522 10.2841 13.152 10.2841C13.1519 10.2841 13.1517 10.2841 13.1516 10.2841C13.1515 10.2841 13.1513 10.2841 13.1512 10.2841C13.151 10.2841 13.1509 10.2841 13.1507 10.2841C13.1506 10.2841 13.1505 10.2841 13.1503 10.2841C13.1502 10.2841 13.15 10.2841 13.1499 10.2841C13.1497 10.2841 13.1496 10.2841 13.1494 10.2841C13.1493 10.2841 13.1492 10.2841 13.149 10.2841C13.1489 10.2841 13.1487 10.2841 13.1486 10.2841C13.1484 10.2841 13.1483 10.2841 13.1481 10.2841C13.148 10.2841 13.1479 10.2841 13.1477 10.2841C13.1476 10.2841 13.1474 10.2841 13.1473 10.2841C13.1471 10.2841 13.147 10.2841 13.1468 10.2841C13.1467 10.2841 13.1465 10.2841 13.1464 10.2841C13.1462 10.2841 13.1461 10.2841 13.1459 10.2841C13.1458 10.2841 13.1456 10.2841 13.1455 10.2841C13.1453 10.2841 13.1452 10.2841 13.145 10.2841C13.1449 10.2841 13.1447 10.2841 13.1446 10.2841C13.1444 10.2841 13.1443 10.2841 13.1441 10.2841C13.144 10.2841 13.1438 10.2841 13.1437 10.2841C13.1435 10.2841 13.1434 10.2841 13.1432 10.2841C13.1431 10.2841 13.1429 10.2841 13.1428 10.2841C13.1426 10.2841 13.1425 10.2841 13.1423 10.2841C13.1422 10.2841 13.142 10.2841 13.1419 10.2841C13.1417 10.2841 13.1416 10.2841 13.1414 10.2841C13.1413 10.2841 13.1411 10.2841 13.141 10.2841C13.1408 10.2841 13.1406 10.2841 13.1405 10.2841C13.1403 10.2841 13.1402 10.2841 13.14 10.2841C13.1399 10.2841 13.1397 10.2841 13.1396 10.2841C13.1394 10.2841 13.1392 10.2841 13.1391 10.2841C13.1389 10.2841 13.1388 10.2841 13.1386 10.2841C13.1385 10.2841 13.1383 10.2841 13.1381 10.2841C13.138 10.2841 13.1378 10.2841 13.1377 10.2841C13.1375 10.2841 13.1374 10.2841 13.1372 10.2841C13.137 10.2841 13.1369 10.2841 13.1367 10.2841C13.1366 10.2841 13.1364 10.2841 13.1362 10.2841C13.1361 10.2841 13.1359 10.2841 13.1358 10.2841C13.1356 10.2841 13.1354 10.2841 13.1353 10.2841C13.1351 10.2841 13.135 10.2841 13.1348 10.2841C13.1346 10.2841 13.1345 10.2841 13.1343 10.2841C13.1341 10.2841 13.134 10.2841 13.1338 10.2841C13.1337 10.2841 13.1335 10.2841 13.1333 10.2841C13.1332 10.2841 13.133 10.2841 13.1328 10.2841C13.1327 10.2841 13.1325 10.2841 13.1324 10.2841C13.1322 10.2841 13.132 10.2841 13.1319 10.2841C13.1317 10.2841 13.1315 10.2841 13.1314 10.2841C13.1312 10.2841 13.131 10.2841 13.1309 10.2841C13.1307 10.2841 13.1305 10.2841 13.1304 10.2841C13.1302 10.2841 13.13 10.2841 13.1299 10.2841C13.1297 10.2841 13.1295 10.2841 13.1294 10.2841C13.1292 10.2841 13.129 10.2841 13.1289 10.2841C13.1287 10.2841 13.1285 10.2841 13.1283 10.2841C13.1282 10.2841 13.128 10.2841 13.1278 10.2841C13.1277 10.2841 13.1275 10.2841 13.1273 10.2841C13.1272 10.2841 13.127 10.2841 13.1268 10.2841C13.1266 10.2841 13.1265 10.2841 13.1263 10.2841C13.1261 10.2841 13.1259 10.2841 13.1258 10.2841C13.1256 10.2841 13.1254 10.2841 13.1253 10.2841C13.1251 10.2841 13.1249 10.2841 13.1247 10.2841C13.1246 10.2841 13.1244 10.2841 13.1242 10.2841C13.124 10.2841 13.1239 10.2841 13.1237 10.2841C13.1235 10.2841 13.1233 10.2841 13.1232 10.2841C13.123 10.2841 13.1228 10.2841 13.1226 10.2841C13.1225 10.2841 13.1223 10.2841 13.1221 10.2841C13.1219 10.2841 13.1217 10.2841 13.1216 10.2841C13.1214 10.2841 13.1212 10.2841 13.121 10.2841C13.1209 10.2841 13.1207 10.2841 13.1205 10.2841C13.1203 10.2841 13.1201 10.2841 13.12 10.2841C13.1198 10.2841 13.1196 10.2841 13.1194 10.2841C13.1192 10.2841 13.119 10.2841 13.1189 10.2841C13.1187 10.2841 13.1185 10.2841 13.1183 10.2841C13.1181 10.2841 13.118 10.2841 13.1178 10.2841C13.1176 10.2841 13.1174 10.2841 13.1172 10.2841C13.117 10.2841 13.1169 10.2841 13.1167 10.2841C13.1165 10.2841 13.1163 10.2841 13.1161 10.2841C13.1159 10.2841 13.1157 10.2841 13.1156 10.2841C13.1154 10.2841 13.1152 10.2841 13.115 10.2841C13.1148 10.2841 13.1146 10.2841 13.1144 10.2841C13.1143 10.2841 13.1141 10.2841 13.1139 10.2841C13.1137 10.2841 13.1135 10.2841 13.1133 10.2841C13.1131 10.2841 13.1129 10.2841 13.1127 10.2841C13.1126 10.2841 13.1124 10.2841 13.1122 10.2841C13.112 10.2841 13.1118 10.2841 13.1116 10.2841C13.1114 10.2841 13.1112 10.2841 13.111 10.2841C13.1108 10.2841 13.1107 10.2841 13.1105 10.2841C13.1103 10.2841 13.1101 10.2841 13.1099 10.2841C13.1097 10.2841 13.1095 10.2841 13.1093 10.2841C13.1091 10.2841 13.1089 10.2841 13.1087 10.2841C13.1085 10.2841 13.1083 10.2841 13.1081 10.2841C13.1079 10.2841 13.1077 10.2841 13.1075 10.2841C13.1073 10.2841 13.1072 10.2841 13.107 10.2841C13.1068 10.2841 13.1066 10.2841 13.1064 10.2841C13.1062 10.2841 13.106 10.2841 13.1058 10.2841C13.1056 10.2841 13.1054 10.2841 13.1052 10.2841C13.105 10.2841 13.1048 10.2841 13.1046 10.2841C13.1044 10.2841 13.1042 10.2841 13.104 10.2841C13.1038 10.2841 13.1036 10.2841 13.1034 10.2841C13.1032 10.2841 13.103 10.2841 13.1028 10.2841C13.1026 10.2841 13.1024 10.2841 13.1022 10.2841C13.102 10.2841 13.1017 10.2841 13.1015 10.2841C13.1013 10.2841 13.1011 10.2841 13.1009 10.2841C13.1007 10.2841 13.1005 10.2841 13.1003 10.2841C13.1001 10.2841 13.0999 10.2841 13.0997 10.2841C13.0995 10.2841 13.0993 10.2841 13.0991 10.2841C13.0989 10.2841 13.0987 10.2841 13.0985 10.2841C13.0982 10.2841 13.098 10.2841 13.0978 10.2841C13.0976 10.2841 13.0974 10.2841 13.0972 10.2841C13.097 10.2841 13.0968 10.2841 13.0966 10.2841C13.0964 10.2841 13.0962 10.2841 13.0959 10.2841C13.0957 10.2841 13.0955 10.2841 13.0953 10.2841C13.0951 10.2841 13.0949 10.2841 13.0947 10.2841C13.0945 10.2841 13.0942 10.2841 13.094 10.2841C13.0938 10.2841 13.0936 10.2841 13.0934 10.2841C13.0932 10.2841 13.093 10.2841 13.0927 10.2841C13.0925 10.2841 13.0923 10.2841 13.0921 10.2841V16.2841C13.0923 16.2841 13.0925 16.2841 13.0927 16.2841C13.093 16.2841 13.0932 16.2841 13.0934 16.2841C13.0936 16.2841 13.0938 16.2841 13.094 16.2841C13.0942 16.2841 13.0945 16.2841 13.0947 16.2841C13.0949 16.2841 13.0951 16.2841 13.0953 16.2841C13.0955 16.2841 13.0957 16.2841 13.0959 16.2841C13.0962 16.2841 13.0964 16.2841 13.0966 16.2841C13.0968 16.2841 13.097 16.2841 13.0972 16.2841C13.0974 16.2841 13.0976 16.2841 13.0978 16.2841C13.098 16.2841 13.0982 16.2841 13.0985 16.2841C13.0987 16.2841 13.0989 16.2841 13.0991 16.2841C13.0993 16.2841 13.0995 16.2841 13.0997 16.2841C13.0999 16.2841 13.1001 16.2841 13.1003 16.2841C13.1005 16.2841 13.1007 16.2841 13.1009 16.2841C13.1011 16.2841 13.1013 16.2841 13.1015 16.2841C13.1017 16.2841 13.102 16.2841 13.1022 16.2841C13.1024 16.2841 13.1026 16.2841 13.1028 16.2841C13.103 16.2841 13.1032 16.2841 13.1034 16.2841C13.1036 16.2841 13.1038 16.2841 13.104 16.2841C13.1042 16.2841 13.1044 16.2841 13.1046 16.2841C13.1048 16.2841 13.105 16.2841 13.1052 16.2841C13.1054 16.2841 13.1056 16.2841 13.1058 16.2841C13.106 16.2841 13.1062 16.2841 13.1064 16.2841C13.1066 16.2841 13.1068 16.2841 13.107 16.2841C13.1072 16.2841 13.1073 16.2841 13.1075 16.2841C13.1077 16.2841 13.1079 16.2841 13.1081 16.2841C13.1083 16.2841 13.1085 16.2841 13.1087 16.2841C13.1089 16.2841 13.1091 16.2841 13.1093 16.2841C13.1095 16.2841 13.1097 16.2841 13.1099 16.2841C13.1101 16.2841 13.1103 16.2841 13.1105 16.2841C13.1107 16.2841 13.1108 16.2841 13.111 16.2841C13.1112 16.2841 13.1114 16.2841 13.1116 16.2841C13.1118 16.2841 13.112 16.2841 13.1122 16.2841C13.1124 16.2841 13.1126 16.2841 13.1127 16.2841C13.1129 16.2841 13.1131 16.2841 13.1133 16.2841C13.1135 16.2841 13.1137 16.2841 13.1139 16.2841C13.1141 16.2841 13.1143 16.2841 13.1144 16.2841C13.1146 16.2841 13.1148 16.2841 13.115 16.2841C13.1152 16.2841 13.1154 16.2841 13.1156 16.2841C13.1157 16.2841 13.1159 16.2841 13.1161 16.2841C13.1163 16.2841 13.1165 16.2841 13.1167 16.2841C13.1169 16.2841 13.117 16.2841 13.1172 16.2841C13.1174 16.2841 13.1176 16.2841 13.1178 16.2841C13.118 16.2841 13.1181 16.2841 13.1183 16.2841C13.1185 16.2841 13.1187 16.2841 13.1189 16.2841C13.119 16.2841 13.1192 16.2841 13.1194 16.2841C13.1196 16.2841 13.1198 16.2841 13.12 16.2841C13.1201 16.2841 13.1203 16.2841 13.1205 16.2841C13.1207 16.2841 13.1209 16.2841 13.121 16.2841C13.1212 16.2841 13.1214 16.2841 13.1216 16.2841C13.1217 16.2841 13.1219 16.2841 13.1221 16.2841C13.1223 16.2841 13.1225 16.2841 13.1226 16.2841C13.1228 16.2841 13.123 16.2841 13.1232 16.2841C13.1233 16.2841 13.1235 16.2841 13.1237 16.2841C13.1239 16.2841 13.124 16.2841 13.1242 16.2841C13.1244 16.2841 13.1246 16.2841 13.1247 16.2841C13.1249 16.2841 13.1251 16.2841 13.1253 16.2841C13.1254 16.2841 13.1256 16.2841 13.1258 16.2841C13.1259 16.2841 13.1261 16.2841 13.1263 16.2841C13.1265 16.2841 13.1266 16.2841 13.1268 16.2841C13.127 16.2841 13.1272 16.2841 13.1273 16.2841C13.1275 16.2841 13.1277 16.2841 13.1278 16.2841C13.128 16.2841 13.1282 16.2841 13.1283 16.2841C13.1285 16.2841 13.1287 16.2841 13.1289 16.2841C13.129 16.2841 13.1292 16.2841 13.1294 16.2841C13.1295 16.2841 13.1297 16.2841 13.1299 16.2841C13.13 16.2841 13.1302 16.2841 13.1304 16.2841C13.1305 16.2841 13.1307 16.2841 13.1309 16.2841C13.131 16.2841 13.1312 16.2841 13.1314 16.2841C13.1315 16.2841 13.1317 16.2841 13.1319 16.2841C13.132 16.2841 13.1322 16.2841 13.1324 16.2841C13.1325 16.2841 13.1327 16.2841 13.1328 16.2841C13.133 16.2841 13.1332 16.2841 13.1333 16.2841C13.1335 16.2841 13.1337 16.2841 13.1338 16.2841C13.134 16.2841 13.1341 16.2841 13.1343 16.2841C13.1345 16.2841 13.1346 16.2841 13.1348 16.2841C13.135 16.2841 13.1351 16.2841 13.1353 16.2841C13.1354 16.2841 13.1356 16.2841 13.1358 16.2841C13.1359 16.2841 13.1361 16.2841 13.1362 16.2841C13.1364 16.2841 13.1366 16.2841 13.1367 16.2841C13.1369 16.2841 13.137 16.2841 13.1372 16.2841C13.1374 16.2841 13.1375 16.2841 13.1377 16.2841C13.1378 16.2841 13.138 16.2841 13.1381 16.2841C13.1383 16.2841 13.1385 16.2841 13.1386 16.2841C13.1388 16.2841 13.1389 16.2841 13.1391 16.2841C13.1392 16.2841 13.1394 16.2841 13.1396 16.2841C13.1397 16.2841 13.1399 16.2841 13.14 16.2841C13.1402 16.2841 13.1403 16.2841 13.1405 16.2841C13.1406 16.2841 13.1408 16.2841 13.141 16.2841C13.1411 16.2841 13.1413 16.2841 13.1414 16.2841C13.1416 16.2841 13.1417 16.2841 13.1419 16.2841C13.142 16.2841 13.1422 16.2841 13.1423 16.2841C13.1425 16.2841 13.1426 16.2841 13.1428 16.2841C13.1429 16.2841 13.1431 16.2841 13.1432 16.2841C13.1434 16.2841 13.1435 16.2841 13.1437 16.2841C13.1438 16.2841 13.144 16.2841 13.1441 16.2841C13.1443 16.2841 13.1444 16.2841 13.1446 16.2841C13.1447 16.2841 13.1449 16.2841 13.145 16.2841C13.1452 16.2841 13.1453 16.2841 13.1455 16.2841C13.1456 16.2841 13.1458 16.2841 13.1459 16.2841C13.1461 16.2841 13.1462 16.2841 13.1464 16.2841C13.1465 16.2841 13.1467 16.2841 13.1468 16.2841C13.147 16.2841 13.1471 16.2841 13.1473 16.2841C13.1474 16.2841 13.1476 16.2841 13.1477 16.2841C13.1479 16.2841 13.148 16.2841 13.1481 16.2841C13.1483 16.2841 13.1484 16.2841 13.1486 16.2841C13.1487 16.2841 13.1489 16.2841 13.149 16.2841C13.1492 16.2841 13.1493 16.2841 13.1494 16.2841C13.1496 16.2841 13.1497 16.2841 13.1499 16.2841C13.15 16.2841 13.1502 16.2841 13.1503 16.2841C13.1505 16.2841 13.1506 16.2841 13.1507 16.2841C13.1509 16.2841 13.151 16.2841 13.1512 16.2841C13.1513 16.2841 13.1515 16.2841 13.1516 16.2841C13.1517 16.2841 13.1519 16.2841 13.152 16.2841C13.1522 16.2841 13.1523 16.2841 13.1524 16.2841C13.1526 16.2841 13.1527 16.2841 13.1529 16.2841C13.153 16.2841 13.1531 16.2841 13.1533 16.2841C13.1534 16.2841 13.1536 16.2841 13.1537 16.2841C13.1538 16.2841 13.154 16.2841 13.1541 16.2841C13.1543 16.2841 13.1544 16.2841 13.1545 16.2841C13.1547 16.2841 13.1548 16.2841 13.155 16.2841C13.1551 16.2841 13.1552 16.2841 13.1554 16.2841C13.1555 16.2841 13.1556 16.2841 13.1558 16.2841C13.1559 16.2841 13.1561 16.2841 13.1562 16.2841C13.1563 16.2841 13.1565 16.2841 13.1566 16.2841C13.1567 16.2841 13.1569 16.2841 13.157 16.2841C13.1571 16.2841 13.1573 16.2841 13.1574 16.2841C13.1576 16.2841 13.1577 16.2841 13.1578 16.2841C13.158 16.2841 13.1581 16.2841 13.1582 16.2841C13.1584 16.2841 13.1585 16.2841 13.1586 16.2841C13.1588 16.2841 13.1589 16.2841 13.159 16.2841C13.1592 16.2841 13.1593 16.2841 13.1594 16.2841C13.1596 16.2841 13.1597 16.2841 13.1598 16.2841C13.16 16.2841 13.1601 16.2841 13.1602 16.2841C13.1604 16.2841 13.1605 16.2841 13.1606 16.2841C13.1608 16.2841 13.1609 16.2841 13.161 16.2841C13.1612 16.2841 13.1613 16.2841 13.1614 16.2841C13.1616 16.2841 13.1617 16.2841 13.1618 16.2841C13.1619 16.2841 13.1621 16.2841 13.1622 16.2841C13.1623 16.2841 13.1625 16.2841 13.1626 16.2841C13.1627 16.2841 13.1629 16.2841 13.163 16.2841C13.1631 16.2841 13.1632 16.2841 13.1634 16.2841C13.1635 16.2841 13.1636 16.2841 13.1638 16.2841C13.1639 16.2841 13.164 16.2841 13.1642 16.2841C13.1643 16.2841 13.1644 16.2841 13.1645 16.2841C13.1647 16.2841 13.1648 16.2841 13.1649 16.2841C13.1651 16.2841 13.1652 16.2841 13.1653 16.2841C13.1654 16.2841 13.1656 16.2841 13.1657 16.2841C13.1658 16.2841 13.1659 16.2841 13.1661 16.2841C13.1662 16.2841 13.1663 16.2841 13.1665 16.2841C13.1666 16.2841 13.1667 16.2841 13.1668 16.2841C13.167 16.2841 13.1671 16.2841 13.1672 16.2841C13.1673 16.2841 13.1675 16.2841 13.1676 16.2841C13.1677 16.2841 13.1678 16.2841 13.168 16.2841C13.1681 16.2841 13.1682 16.2841 13.1683 16.2841C13.1685 16.2841 13.1686 16.2841 13.1687 16.2841C13.1688 16.2841 13.169 16.2841 13.1691 16.2841C13.1692 16.2841 13.1693 16.2841 13.1695 16.2841C13.1696 16.2841 13.1697 16.2841 13.1698 16.2841C13.17 16.2841 13.1701 16.2841 13.1702 16.2841C13.1703 16.2841 13.1704 16.2841 13.1706 16.2841C13.1707 16.2841 13.1708 16.2841 13.1709 16.2841C13.1711 16.2841 13.1712 16.2841 13.1713 16.2841C13.1714 16.2841 13.1716 16.2841 13.1717 16.2841C13.1718 16.2841 13.1719 16.2841 13.172 16.2841C13.1722 16.2841 13.1723 16.2841 13.1724 16.2841C13.1725 16.2841 13.1726 16.2841 13.1728 16.2841C13.1729 16.2841 13.173 16.2841 13.1731 16.2841C13.1733 16.2841 13.1734 16.2841 13.1735 16.2841C13.1736 16.2841 13.1737 16.2841 13.1739 16.2841C13.174 16.2841 13.1741 16.2841 13.1742 16.2841C13.1743 16.2841 13.1745 16.2841 13.1746 16.2841C13.1747 16.2841 13.1748 16.2841 13.1749 16.2841C13.1751 16.2841 13.1752 16.2841 13.1753 16.2841C13.1754 16.2841 13.1755 16.2841 13.1756 16.2841C13.1758 16.2841 13.1759 16.2841 13.176 16.2841C13.1761 16.2841 13.1762 16.2841 13.1764 16.2841C13.1765 16.2841 13.1766 16.2841 13.1767 16.2841C13.1768 16.2841 13.177 16.2841 13.1771 16.2841C13.1772 16.2841 13.1773 16.2841 13.1774 16.2841C13.1775 16.2841 13.1777 16.2841 13.1778 16.2841C13.1779 16.2841 13.178 16.2841 13.1781 16.2841C13.1782 16.2841 13.1784 16.2841 13.1785 16.2841C13.1786 16.2841 13.1787 16.2841 13.1788 16.2841C13.1789 16.2841 13.1791 16.2841 13.1792 16.2841C13.1793 16.2841 13.1794 16.2841 13.1795 16.2841C13.1796 16.2841 13.1798 16.2841 13.1799 16.2841C13.18 16.2841 13.1801 16.2841 13.1802 16.2841C13.1803 16.2841 13.1805 16.2841 13.1806 16.2841C13.1807 16.2841 13.1808 16.2841 13.1809 16.2841C13.181 16.2841 13.1811 16.2841 13.1813 16.2841C13.1814 16.2841 13.1815 16.2841 13.1816 16.2841C13.1817 16.2841 13.1818 16.2841 13.182 16.2841C13.1821 16.2841 13.1822 16.2841 13.1823 16.2841C13.1824 16.2841 13.1825 16.2841 13.1826 16.2841C13.1828 16.2841 13.1829 16.2841 13.183 16.2841C13.1831 16.2841 13.1832 16.2841 13.1833 16.2841C13.1834 16.2841 13.1835 16.2841 13.1837 16.2841C13.1838 16.2841 13.1839 16.2841 13.184 16.2841C13.1841 16.2841 13.1842 16.2841 13.1843 16.2841C13.1845 16.2841 13.1846 16.2841 13.1847 16.2841C13.1848 16.2841 13.1849 16.2841 13.185 16.2841C13.1851 16.2841 13.1852 16.2841 13.1854 16.2841C13.1855 16.2841 13.1856 16.2841 13.1857 16.2841C13.1858 16.2841 13.1859 16.2841 13.186 16.2841C13.1861 16.2841 13.1863 16.2841 13.1864 16.2841C13.1865 16.2841 13.1866 16.2841 13.1867 16.2841C13.1868 16.2841 13.1869 16.2841 13.187 16.2841C13.1872 16.2841 13.1873 16.2841 13.1874 16.2841C13.1875 16.2841 13.1876 16.2841 13.1877 16.2841C13.1878 16.2841 13.1879 16.2841 13.1881 16.2841C13.1882 16.2841 13.1883 16.2841 13.1884 16.2841C13.1885 16.2841 13.1886 16.2841 13.1887 16.2841C13.1888 16.2841 13.1889 16.2841 13.1891 16.2841C13.1892 16.2841 13.1893 16.2841 13.1894 16.2841C13.1895 16.2841 13.1896 16.2841 13.1897 16.2841C13.1898 16.2841 13.1899 16.2841 13.19 16.2841C13.1902 16.2841 13.1903 16.2841 13.1904 16.2841C13.1905 16.2841 13.1906 16.2841 13.1907 16.2841C13.1908 16.2841 13.1909 16.2841 13.191 16.2841C13.1912 16.2841 13.1913 16.2841 13.1914 16.2841C13.1915 16.2841 13.1916 16.2841 13.1917 16.2841C13.1918 16.2841 13.1919 16.2841 13.192 16.2841C13.1921 16.2841 13.1923 16.2841 13.1924 16.2841C13.1925 16.2841 13.1926 16.2841 13.1927 16.2841C13.1928 16.2841 13.1929 16.2841 13.193 16.2841C13.1931 16.2841 13.1932 16.2841 13.1933 16.2841C13.1935 16.2841 13.1936 16.2841 13.1937 16.2841C13.1938 16.2841 13.1939 16.2841 13.194 16.2841C13.1941 16.2841 13.1942 16.2841 13.1943 16.2841C13.1944 16.2841 13.1946 16.2841 13.1947 16.2841C13.1948 16.2841 13.1949 16.2841 13.195 16.2841C13.1951 16.2841 13.1952 16.2841 13.1953 16.2841C13.1954 16.2841 13.1955 16.2841 13.1956 16.2841C13.1958 16.2841 13.1959 16.2841 13.196 16.2841C13.1961 16.2841 13.1962 16.2841 13.1963 16.2841C13.1964 16.2841 13.1965 16.2841 13.1966 16.2841C13.1967 16.2841 13.1968 16.2841 13.1969 16.2841C13.1971 16.2841 13.1972 16.2841 13.1973 16.2841C13.1974 16.2841 13.1975 16.2841 13.1976 16.2841C13.1977 16.2841 13.1978 16.2841 13.1979 16.2841C13.198 16.2841 13.1981 16.2841 13.1982 16.2841C13.1984 16.2841 13.1985 16.2841 13.1986 16.2841C13.1987 16.2841 13.1988 16.2841 13.1989 16.2841C13.199 16.2841 13.1991 16.2841 13.1992 16.2841C13.1993 16.2841 13.1994 16.2841 13.1995 16.2841C13.1997 16.2841 13.1998 16.2841 13.1999 16.2841C13.2 16.2841 13.2001 16.2841 13.2002 16.2841C13.2003 16.2841 13.2004 16.2841 13.2005 16.2841C13.2006 16.2841 13.2007 16.2841 13.2008 16.2841C13.201 16.2841 13.2011 16.2841 13.2012 16.2841C13.2013 16.2841 13.2014 16.2841 13.2015 16.2841C13.2016 16.2841 13.2017 16.2841 13.2018 16.2841C13.2019 16.2841 13.202 16.2841 13.2021 16.2841C13.2023 16.2841 13.2024 16.2841 13.2025 16.2841C13.2026 16.2841 13.2027 16.2841 13.2028 16.2841C13.2029 16.2841 13.203 16.2841 13.2031 16.2841C13.2032 16.2841 13.2033 16.2841 13.2034 16.2841C13.2036 16.2841 13.2037 16.2841 13.2038 16.2841C13.2039 16.2841 13.204 16.2841 13.2041 16.2841C13.2042 16.2841 13.2043 16.2841 13.2044 16.2841C13.2045 16.2841 13.2046 16.2841 13.2047 16.2841C13.2048 16.2841 13.205 16.2841 13.2051 16.2841C13.2052 16.2841 13.2053 16.2841 13.2054 16.2841C13.2055 16.2841 13.2056 16.2841 13.2057 16.2841C13.2058 16.2841 13.2059 16.2841 13.206 16.2841C13.2061 16.2841 13.2063 16.2841 13.2064 16.2841C13.2065 16.2841 13.2066 16.2841 13.2067 16.2841C13.2068 16.2841 13.2069 16.2841 13.207 16.2841C13.2071 16.2841 13.2072 16.2841 13.2073 16.2841C13.2074 16.2841 13.2076 16.2841 13.2077 16.2841C13.2078 16.2841 13.2079 16.2841 13.208 16.2841C13.2081 16.2841 13.2082 16.2841 13.2083 16.2841C13.2084 16.2841 13.2085 16.2841 13.2086 16.2841C13.2088 16.2841 13.2089 16.2841 13.209 16.2841C13.2091 16.2841 13.2092 16.2841 13.2093 16.2841C13.2094 16.2841 13.2095 16.2841 13.2096 16.2841C13.2097 16.2841 13.2098 16.2841 13.2099 16.2841C13.2101 16.2841 13.2102 16.2841 13.2103 16.2841C13.2104 16.2841 13.2105 16.2841 13.2106 16.2841C13.2107 16.2841 13.2108 16.2841 13.2109 16.2841C13.211 16.2841 13.2111 16.2841 13.2113 16.2841C13.2114 16.2841 13.2115 16.2841 13.2116 16.2841C13.2117 16.2841 13.2118 16.2841 13.2119 16.2841C13.212 16.2841 13.2121 16.2841 13.2122 16.2841C13.2123 16.2841 13.2125 16.2841 13.2126 16.2841C13.2127 16.2841 13.2128 16.2841 13.2129 16.2841C13.213 16.2841 13.2131 16.2841 13.2132 16.2841C13.2133 16.2841 13.2134 16.2841 13.2136 16.2841C13.2137 16.2841 13.2138 16.2841 13.2139 16.2841C13.214 16.2841 13.2141 16.2841 13.2142 16.2841C13.2143 16.2841 13.2144 16.2841 13.2145 16.2841C13.2147 16.2841 13.2148 16.2841 13.2149 16.2841C13.215 16.2841 13.2151 16.2841 13.2152 16.2841C13.2153 16.2841 13.2154 16.2841 13.2155 16.2841C13.2157 16.2841 13.2158 16.2841 13.2159 16.2841C13.216 16.2841 13.2161 16.2841 13.2162 16.2841C13.2163 16.2841 13.2164 16.2841 13.2165 16.2841C13.2166 16.2841 13.2168 16.2841 13.2169 16.2841C13.217 16.2841 13.2171 16.2841 13.2172 16.2841C13.2173 16.2841 13.2174 16.2841 13.2175 16.2841C13.2177 16.2841 13.2178 16.2841 13.2179 16.2841C13.218 16.2841 13.2181 16.2841 13.2182 16.2841C13.2183 16.2841 13.2184 16.2841 13.2185 16.2841C13.2187 16.2841 13.2188 16.2841 13.2189 16.2841C13.219 16.2841 13.2191 16.2841 13.2192 16.2841C13.2193 16.2841 13.2194 16.2841 13.2196 16.2841C13.2197 16.2841 13.2198 16.2841 13.2199 16.2841C13.22 16.2841 13.2201 16.2841 13.2202 16.2841C13.2203 16.2841 13.2205 16.2841 13.2206 16.2841C13.2207 16.2841 13.2208 16.2841 13.2209 16.2841C13.221 16.2841 13.2211 16.2841 13.2212 16.2841C13.2214 16.2841 13.2215 16.2841 13.2216 16.2841C13.2217 16.2841 13.2218 16.2841 13.2219 16.2841C13.222 16.2841 13.2222 16.2841 13.2223 16.2841C13.2224 16.2841 13.2225 16.2841 13.2226 16.2841C13.2227 16.2841 13.2228 16.2841 13.223 16.2841C13.2231 16.2841 13.2232 16.2841 13.2233 16.2841C13.2234 16.2841 13.2235 16.2841 13.2236 16.2841C13.2238 16.2841 13.2239 16.2841 13.224 16.2841C13.2241 16.2841 13.2242 16.2841 13.2243 16.2841C13.2244 16.2841 13.2246 16.2841 13.2247 16.2841C13.2248 16.2841 13.2249 16.2841 13.225 16.2841C13.2251 16.2841 13.2253 16.2841 13.2254 16.2841C13.2255 16.2841 13.2256 16.2841 13.2257 16.2841C13.2258 16.2841 13.2259 16.2841 13.2261 16.2841C13.2262 16.2841 13.2263 16.2841 13.2264 16.2841C13.2265 16.2841 13.2266 16.2841 13.2268 16.2841C13.2269 16.2841 13.227 16.2841 13.2271 16.2841C13.2272 16.2841 13.2273 16.2841 13.2275 16.2841C13.2276 16.2841 13.2277 16.2841 13.2278 16.2841C13.2279 16.2841 13.228 16.2841 13.2282 16.2841C13.2283 16.2841 13.2284 16.2841 13.2285 16.2841C13.2286 16.2841 13.2288 16.2841 13.2289 16.2841C13.229 16.2841 13.2291 16.2841 13.2292 16.2841C13.2293 16.2841 13.2295 16.2841 13.2296 16.2841C13.2297 16.2841 13.2298 16.2841 13.2299 16.2841C13.2301 16.2841 13.2302 16.2841 13.2303 16.2841C13.2304 16.2841 13.2305 16.2841 13.2307 16.2841C13.2308 16.2841 13.2309 16.2841 13.231 16.2841C13.2311 16.2841 13.2313 16.2841 13.2314 16.2841C13.2315 16.2841 13.2316 16.2841 13.2317 16.2841C13.2319 16.2841 13.232 16.2841 13.2321 16.2841C13.2322 16.2841 13.2323 16.2841 13.2325 16.2841C13.2326 16.2841 13.2327 16.2841 13.2328 16.2841C13.2329 16.2841 13.2331 16.2841 13.2332 16.2841C13.2333 16.2841 13.2334 16.2841 13.2336 16.2841C13.2337 16.2841 13.2338 16.2841 13.2339 16.2841C13.234 16.2841 13.2342 16.2841 13.2343 16.2841C13.2344 16.2841 13.2345 16.2841 13.2347 16.2841C13.2348 16.2841 13.2349 16.2841 13.235 16.2841C13.2351 16.2841 13.2353 16.2841 13.2354 16.2841C13.2355 16.2841 13.2356 16.2841 13.2358 16.2841C13.2359 16.2841 13.236 16.2841 13.2361 16.2841C13.2363 16.2841 13.2364 16.2841 13.2365 16.2841C13.2366 16.2841 13.2368 16.2841 13.2369 16.2841C13.237 16.2841 13.2371 16.2841 13.2373 16.2841C13.2374 16.2841 13.2375 16.2841 13.2376 16.2841C13.2378 16.2841 13.2379 16.2841 13.238 16.2841C13.2381 16.2841 13.2383 16.2841 13.2384 16.2841C13.2385 16.2841 13.2386 16.2841 13.2388 16.2841C13.2389 16.2841 13.239 16.2841 13.2391 16.2841C13.2393 16.2841 13.2394 16.2841 13.2395 16.2841C13.2396 16.2841 13.2398 16.2841 13.2399 16.2841C13.24 16.2841 13.2402 16.2841 13.2403 16.2841C13.2404 16.2841 13.2405 16.2841 13.2407 16.2841C13.2408 16.2841 13.2409 16.2841 13.241 16.2841C13.2412 16.2841 13.2413 16.2841 13.2414 16.2841C13.2416 16.2841 13.2417 16.2841 13.2418 16.2841C13.242 16.2841 13.2421 16.2841 13.2422 16.2841C13.2423 16.2841 13.2425 16.2841 13.2426 16.2841C13.2427 16.2841 13.2429 16.2841 13.243 16.2841C13.2431 16.2841 13.2433 16.2841 13.2434 16.2841C13.2435 16.2841 13.2436 16.2841 13.2438 16.2841C13.2439 16.2841 13.244 16.2841 13.2442 16.2841C13.2443 16.2841 13.2444 16.2841 13.2446 16.2841C13.2447 16.2841 13.2448 16.2841 13.245 16.2841C13.2451 16.2841 13.2452 16.2841 13.2454 16.2841C13.2455 16.2841 13.2456 16.2841 13.2458 16.2841C13.2459 16.2841 13.246 16.2841 13.2462 16.2841C13.2463 16.2841 13.2464 16.2841 13.2466 16.2841C13.2467 16.2841 13.2468 16.2841 13.247 16.2841C13.2471 16.2841 13.2472 16.2841 13.2474 16.2841C13.2475 16.2841 13.2476 16.2841 13.2478 16.2841C13.2479 16.2841 13.248 16.2841 13.2482 16.2841C13.2483 16.2841 13.2484 16.2841 13.2486 16.2841C13.2487 16.2841 13.2489 16.2841 13.249 16.2841C13.2491 16.2841 13.2493 16.2841 13.2494 16.2841C13.2495 16.2841 13.2497 16.2841 13.2498 16.2841C13.2499 16.2841 13.2501 16.2841 13.2502 16.2841C13.2504 16.2841 13.2505 16.2841 13.2506 16.2841C13.2508 16.2841 13.2509 16.2841 13.2511 16.2841C13.2512 16.2841 13.2513 16.2841 13.2515 16.2841C13.2516 16.2841 13.2517 16.2841 13.2519 16.2841C13.252 16.2841 13.2522 16.2841 13.2523 16.2841C13.2524 16.2841 13.2526 16.2841 13.2527 16.2841C13.2529 16.2841 13.253 16.2841 13.2531 16.2841C13.2533 16.2841 13.2534 16.2841 13.2536 16.2841C13.2537 16.2841 13.2539 16.2841 13.254 16.2841C13.2541 16.2841 13.2543 16.2841 13.2544 16.2841C13.2546 16.2841 13.2547 16.2841 13.2548 16.2841C13.255 16.2841 13.2551 16.2841 13.2553 16.2841C13.2554 16.2841 13.2556 16.2841 13.2557 16.2841C13.2559 16.2841 13.256 16.2841 13.2561 16.2841C13.2563 16.2841 13.2564 16.2841 13.2566 16.2841C13.2567 16.2841 13.2569 16.2841 13.257 16.2841C13.2572 16.2841 13.2573 16.2841 13.2574 16.2841C13.2576 16.2841 13.2577 16.2841 13.2579 16.2841C13.258 16.2841 13.2582 16.2841 13.2583 16.2841C13.2585 16.2841 13.2586 16.2841 13.2588 16.2841C13.2589 16.2841 13.2591 16.2841 13.2592 16.2841C13.2594 16.2841 13.2595 16.2841 13.2597 16.2841C13.2598 16.2841 13.2599 16.2841 13.2601 16.2841C13.2602 16.2841 13.2604 16.2841 13.2605 16.2841C13.2607 16.2841 13.2608 16.2841 13.261 16.2841C13.2611 16.2841 13.2613 16.2841 13.2614 16.2841C13.2616 16.2841 13.2617 16.2841 13.2619 16.2841C13.262 16.2841 13.2622 16.2841 13.2623 16.2841C13.2625 16.2841 13.2627 16.2841 13.2628 16.2841C13.263 16.2841 13.2631 16.2841 13.2633 16.2841C13.2634 16.2841 13.2636 16.2841 13.2637 16.2841C13.2639 16.2841 13.264 16.2841 13.2642 16.2841C13.2643 16.2841 13.2645 16.2841 13.2646 16.2841C13.2648 16.2841 13.2649 16.2841 13.2651 16.2841C13.2653 16.2841 13.2654 16.2841 13.2656 16.2841C13.2657 16.2841 13.2659 16.2841 13.266 16.2841C13.2662 16.2841 13.2663 16.2841 13.2665 16.2841C13.2667 16.2841 13.2668 16.2841 13.267 16.2841C13.2671 16.2841 13.2673 16.2841 13.2674 16.2841C13.2676 16.2841 13.2678 16.2841 13.2679 16.2841C13.2681 16.2841 13.2682 16.2841 13.2684 16.2841C13.2685 16.2841 13.2687 16.2841 13.2689 16.2841C13.269 16.2841 13.2692 16.2841 13.2693 16.2841C13.2695 16.2841 13.2697 16.2841 13.2698 16.2841C13.27 16.2841 13.2701 16.2841 13.2703 16.2841C13.2705 16.2841 13.2706 16.2841 13.2708 16.2841C13.271 16.2841 13.2711 16.2841 13.2713 16.2841C13.2714 16.2841 13.2716 16.2841 13.2718 16.2841C13.2719 16.2841 13.2721 16.2841 13.2723 16.2841C13.2724 16.2841 13.2726 16.2841 13.2727 16.2841C13.2729 16.2841 13.2731 16.2841 13.2732 16.2841C13.2734 16.2841 13.2736 16.2841 13.2737 16.2841C13.2739 16.2841 13.2741 16.2841 13.2742 16.2841C13.2744 16.2841 13.2746 16.2841 13.2747 16.2841C13.2749 16.2841 13.2751 16.2841 13.2752 16.2841C13.2754 16.2841 13.2756 16.2841 13.2757 16.2841C13.2759 16.2841 13.2761 16.2841 13.2762 16.2841C13.2764 16.2841 13.2766 16.2841 13.2767 16.2841C13.2769 16.2841 13.2771 16.2841 13.2772 16.2841C13.2774 16.2841 13.2776 16.2841 13.2778 16.2841C13.2779 16.2841 13.2781 16.2841 13.2783 16.2841C13.2784 16.2841 13.2786 16.2841 13.2788 16.2841C13.279 16.2841 13.2791 16.2841 13.2793 16.2841C13.2795 16.2841 13.2796 16.2841 13.2798 16.2841C13.28 16.2841 13.2802 16.2841 13.2803 16.2841C13.2805 16.2841 13.2807 16.2841 13.2809 16.2841C13.281 16.2841 13.2812 16.2841 13.2814 16.2841C13.2816 16.2841 13.2817 16.2841 13.2819 16.2841C13.2821 16.2841 13.2823 16.2841 13.2824 16.2841C13.2826 16.2841 13.2828 16.2841 13.283 16.2841C13.2831 16.2841 13.2833 16.2841 13.2835 16.2841C13.2837 16.2841 13.2838 16.2841 13.284 16.2841C13.2842 16.2841 13.2844 16.2841 13.2846 16.2841C13.2847 16.2841 13.2849 16.2841 13.2851 16.2841C13.2853 16.2841 13.2855 16.2841 13.2856 16.2841C13.2858 16.2841 13.286 16.2841 13.2862 16.2841C13.2864 16.2841 13.2865 16.2841 13.2867 16.2841C13.2869 16.2841 13.2871 16.2841 13.2873 16.2841C13.2874 16.2841 13.2876 16.2841 13.2878 16.2841C13.288 16.2841 13.2882 16.2841 13.2884 16.2841C13.2885 16.2841 13.2887 16.2841 13.2889 16.2841C13.2891 16.2841 13.2893 16.2841 13.2895 16.2841C13.2897 16.2841 13.2898 16.2841 13.29 16.2841C13.2902 16.2841 13.2904 16.2841 13.2906 16.2841C13.2908 16.2841 13.291 16.2841 13.2911 16.2841C13.2913 16.2841 13.2915 16.2841 13.2917 16.2841C13.2919 16.2841 13.2921 16.2841 13.2923 16.2841C13.2925 16.2841 13.2927 16.2841 13.2928 16.2841C13.293 16.2841 13.2932 16.2841 13.2934 16.2841C13.2936 16.2841 13.2938 16.2841 13.294 16.2841C13.2942 16.2841 13.2944 16.2841 13.2946 16.2841C13.2947 16.2841 13.2949 16.2841 13.2951 16.2841C13.2953 16.2841 13.2955 16.2841 13.2957 16.2841C13.2959 16.2841 13.2961 16.2841 13.2963 16.2841C13.2965 16.2841 13.2967 16.2841 13.2969 16.2841C13.2971 16.2841 13.2973 16.2841 13.2975 16.2841C13.2977 16.2841 13.2978 16.2841 13.298 16.2841C13.2982 16.2841 13.2984 16.2841 13.2986 16.2841C13.2988 16.2841 13.299 16.2841 13.2992 16.2841C13.2994 16.2841 13.2996 16.2841 13.2998 16.2841C13.3 16.2841 13.3002 16.2841 13.3004 16.2841C13.3006 16.2841 13.3008 16.2841 13.301 16.2841C13.3012 16.2841 13.3014 16.2841 13.3016 16.2841C13.3018 16.2841 13.302 16.2841 13.3022 16.2841C13.3024 16.2841 13.3026 16.2841 13.3028 16.2841C13.303 16.2841 13.3032 16.2841 13.3034 16.2841C13.3036 16.2841 13.3038 16.2841 13.304 16.2841C13.3042 16.2841 13.3045 16.2841 13.3047 16.2841C13.3049 16.2841 13.3051 16.2841 13.3053 16.2841C13.3055 16.2841 13.3057 16.2841 13.3059 16.2841C13.3061 16.2841 13.3063 16.2841 13.3065 16.2841C13.3067 16.2841 13.3069 16.2841 13.3071 16.2841C13.3073 16.2841 13.3076 16.2841 13.3078 16.2841C13.308 16.2841 13.3082 16.2841 13.3084 16.2841C13.3086 16.2841 13.3088 16.2841 13.309 16.2841C13.3092 16.2841 13.3094 16.2841 13.3096 16.2841C13.3099 16.2841 13.3101 16.2841 13.3103 16.2841C13.3105 16.2841 13.3107 16.2841 13.3109 16.2841C13.3111 16.2841 13.3113 16.2841 13.3116 16.2841C13.3118 16.2841 13.312 16.2841 13.3122 16.2841C13.3124 16.2841 13.3126 16.2841 13.3128 16.2841C13.3131 16.2841 13.3133 16.2841 13.3135 16.2841V10.2841ZM14.0777 10.4506L1.34711 6.02255L-0.624016 11.6895L12.1065 16.1175L14.0777 10.4506ZM1.70319 6.17276C2.23535 6.43884 2.5659 6.8333 2.75424 7.20997C2.96537 7.63224 3.12054 8.29469 2.87549 9.02982L-2.81661 7.13245C-3.17235 8.19968 -2.96183 9.19423 -2.61232 9.89325C-2.28561 10.5467 -1.73366 11.1625 -0.980095 11.5393L1.70319 6.17276ZM2.71273 9.42277C2.44664 9.95494 2.05218 10.2855 1.67551 10.4738C1.25324 10.685 0.590789 10.8401 -0.144336 10.5951L1.75303 4.90298C0.685805 4.54724 -0.308751 4.75775 -1.00777 5.10726C-1.66119 5.43398 -2.27705 5.98593 -2.65384 6.73949L2.71273 9.42277ZM-0.19673 10.5771L12.3124 15.0051L14.3146 9.349L1.80543 4.92099L-0.19673 10.5771ZM14.3146 15.0051L26.8237 10.5771L24.8216 4.92099L12.3124 9.349L14.3146 15.0051ZM26.7713 10.5951C26.4987 10.686 25.7481 10.8583 24.8961 10.4323C24.0442 10.0063 23.7317 9.30247 23.6408 9.02982L29.3329 7.13245C29.1313 6.52769 28.6528 5.60242 27.5794 5.06575C26.5061 4.52908 25.4787 4.7014 24.874 4.90298L26.7713 10.5951ZM23.6408 9.02982C23.5499 8.75717 23.3776 8.00657 23.8036 7.15462C24.2295 6.30267 24.9334 5.99017 25.2061 5.89929L27.1034 11.5914C27.7082 11.3898 28.6335 10.9112 29.1701 9.8379C29.7068 8.76455 29.5345 7.7372 29.3329 7.13245L23.6408 9.02982ZM25.1692 5.91185L12.4386 10.3399L14.4098 16.0068L27.1403 11.5788L25.1692 5.91185ZM10.4242 13.1734C10.4242 13.2743 10.4197 13.0957 10.4408 12.9061C10.4594 12.7385 10.5525 11.8855 11.289 11.1489C12.0256 10.4123 12.8787 10.3193 13.0462 10.3007C13.2358 10.2796 13.4145 10.2841 13.3135 10.2841V16.2841C13.3182 16.2841 13.3637 16.2842 13.4113 16.2832C13.456 16.2823 13.5689 16.2795 13.7088 16.264C13.9075 16.2419 14.7813 16.1419 15.5317 15.3915C16.2821 14.6411 16.382 13.7673 16.4041 13.5687C16.4197 13.4288 16.4224 13.3159 16.4234 13.2711C16.4243 13.2236 16.4242 13.1781 16.4242 13.1734H10.4242Z" fill="#383332" mask="url(#path-5-inside-3_530_50)"/>
</svg>
